<?xml version="1.0" standalone="no"?><!DOCTYPE svg PUBLIC "-//W3C//DTD SVG 1.1//EN" "http://www.w3.org/Graphics/SVG/1.1/DTD/svg11.dtd"><svg t="1553492837055" class="icon" style="" viewBox="0 0 1024 1024" version="1.1" xmlns="http://www.w3.org/2000/svg" p-id="1709" xmlns:xlink="http://www.w3.org/1999/xlink" width="200" height="200"><defs><style type="text/css"></style></defs><path d="M511.756919 574.983112L945.52688 1010.083342c8.697911 8.697911 20.158689 13.507345 32.540422 13.507345 12.177076 0 23.740182-4.809433 32.438093-13.405017 17.907465-17.805136 18.009793-46.968722 0.102328-64.978515L576.837762 510.209254 1010.403067 78.895173c18.009793-17.805136 18.009793-46.968722 0.204656-64.978515-8.697911-8.697911-20.261017-13.507345-32.540421-13.507345-12.177076 0-23.740182 4.809433-32.438094 13.405017L511.961576 445.12841 82.080093 13.916658c-8.697911-8.697911-20.158689-13.507345-32.540422-13.507345-12.279404 0-23.740182 4.707105-32.438093 13.405017-17.907465 17.907465-17.907465 47.07105-0.102329 64.978515l429.779155 431.109423L13.520085 941.011692c-17.907465 17.907465-18.009793 46.968722-0.102329 64.978515 8.697911 8.697911 20.261017 13.507345 32.540422 13.507345 12.177076 0 23.740182-4.707105 32.335765-13.405017L511.756919 574.983112z" fill="" p-id="1710"></path></svg>