<?xml version="1.0" standalone="no"?><!DOCTYPE svg PUBLIC "-//W3C//DTD SVG 1.1//EN" "http://www.w3.org/Graphics/SVG/1.1/DTD/svg11.dtd"><svg t="1553493703179" class="icon" style="" viewBox="0 0 1024 1024" version="1.1" xmlns="http://www.w3.org/2000/svg" p-id="2426" xmlns:xlink="http://www.w3.org/1999/xlink" width="200" height="200"><defs><style type="text/css"></style></defs><path d="M979.781818 518.981818C979.781818 518.981818 979.781818 518.981818 979.781818 518.981818c0-4.654545 0-9.309091-2.327273-11.636364 0 0 0 0 0 0-2.327273-4.654545-4.654545-9.309091-6.981818-11.636364l-181.527273-181.527273c-13.963636-13.963636-34.909091-13.963636-48.872727 0-13.963636 13.963636-13.963636 34.909091 0 48.872727l121.018182 121.018182L363.054545 484.072727c-18.618182 0-34.909091 16.290909-34.909091 34.909091s16.290909 34.909091 34.909091 34.909091l502.690909 0-125.672727 125.672727c-13.963636 13.963636-13.963636 34.909091 0 48.872727 13.963636 13.963636 34.909091 13.963636 48.872727 0l181.527273-181.527273c6.981818-6.981818 9.309091-16.290909 9.309091-25.6C979.781818 521.309091 979.781818 518.981818 979.781818 518.981818zM630.690909 930.909091l-23.272727 0-418.909091 0c-39.563636 0-69.818182-30.254545-69.818182-69.818182L118.690909 162.909091c0-39.563636 30.254545-69.818182 69.818182-69.818182l418.909091 0 23.272727 0 34.909091 0c18.618182 0 34.909091-16.290909 34.909091-34.909091l0 0c0-18.618182-16.290909-34.909091-34.909091-34.909091L188.509091 23.272727c-76.8 0-139.636364 62.836364-139.636364 139.636364l0 698.181818c0 76.8 62.836364 139.636364 139.636364 139.636364l477.090909 0c18.618182 0 34.909091-16.290909 34.909091-34.909091l0 0c0-18.618182-16.290909-34.909091-34.909091-34.909091L630.690909 930.909091z" p-id="2427"></path></svg>